<?xml version="1.0" encoding="UTF-8" standalone="no"?>
<svg
   width="226"
   height="70"
   version="1.1"
   id="svg3"
   sodipodi:docname="logo_src.svg"
   inkscape:version="1.4.3 (0d15f75042, 2025-12-25)"
   xmlns:inkscape="http://www.inkscape.org/namespaces/inkscape"
   xmlns:sodipodi="http://sodipodi.sourceforge.net/DTD/sodipodi-0.dtd"
   xmlns="http://www.w3.org/2000/svg"
   xmlns:svg="http://www.w3.org/2000/svg">
  <defs
     id="defs3" />
  <sodipodi:namedview
     id="namedview3"
     pagecolor="#505050"
     bordercolor="#eeeeee"
     borderopacity="1"
     inkscape:showpageshadow="0"
     inkscape:pageopacity="0"
     inkscape:pagecheckerboard="0"
     inkscape:deskcolor="#505050"
     inkscape:zoom="7.8131313"
     inkscape:cx="147.57207"
     inkscape:cy="35.005171"
     inkscape:window-width="1646"
     inkscape:window-height="1001"
     inkscape:window-x="0"
     inkscape:window-y="0"
     inkscape:window-maximized="1"
     inkscape:current-layer="svg3" />
  <rect
     width="226"
     height="70"
     id="rect1"
     x="0"
     y="0"
     style="stroke-width:1.06837" />
  <rect
     x="136"
     y="10"
     width="80"
     height="50"
     rx="4"
     fill="#f7971d"
     id="rect2"
     style="fill:#9b59b6;fill-opacity:1" />
  <g
     transform="matrix(0.1,0,0,0.1,114.85,30.15)"
     stroke-width="10"
     id="g3">
    <path
       d="m 887,-30 c -5,-2 -11,-3 -17,-3 -24,-2 -54,7 -68,19 l 3,-97 h -57 v 301 h 53 v -17 c 25,14 43,21 66,21 66,-5 93,-64 93,-116 -1,-52 -23,-97 -73,-108 z m -32,179 c -35,0 -50,-41 -50,-73 0,-32 11,-65 48,-65 37,0 48,41 48,70 0,32 -11,68 -46,68 z M 655,64 c 0,31 -2,50 -5,58 -8,18 -24,28 -42,29 -18,-1 -26,-10 -33,-23 -2,-7 -3,-26 -3,-56 V -28 h -58 v 138 c -1,49 25,84 73,84 26,0 54,-9 72,-28 v 23 h 53 V -28 H 655 Z M 414,-33 c -28,-1 -59,6 -74,20 v -98 h -57 v 300 h 57 V 80 c 0,-18 2,-32 5,-41 9,-18 24,-28 43,-28 16,0 25,8 32,20 2,6 3,21 3,44 v 115 h 58 V 62 c 0,-20 -1,-34 -3,-43 -12,-34 -36,-51 -64,-52"
       id="path2" />
  </g>
  <text
     xml:space="preserve"
     style="font-style:normal;font-variant:normal;font-weight:bold;font-stretch:normal;font-size:41.3333px;font-family:Arial;-inkscape-font-specification:'Arial Bold';letter-spacing:0px;writing-mode:lr-tb;direction:ltr;display:inline;fill:#ffffff;fill-opacity:1"
     x="7.1226587"
     y="49.087215"
     id="text3"><tspan
       id="tspan3"
       x="7.1226587"
       y="49.087215"
       sodipodi:role="line">Health</tspan></text>
</svg>
