<?xml version="1.0" encoding="UTF-8" standalone="no"?>
<svg
   width="226"
   height="70"
   version="1.1"
   id="svg3"
   xmlns="http://www.w3.org/2000/svg"
   xmlns:svg="http://www.w3.org/2000/svg">
  <defs
     id="defs3" />
  <rect
     x="136"
     y="10"
     width="80"
     height="50"
     rx="4"
     fill="#f7971d"
     id="rect2"
     style="fill:#9b59b6;fill-opacity:1" />
  <g
     transform="matrix(0.1,0,0,0.1,114.85,30.15)"
     stroke-width="10"
     id="g3">
    <path
       d="m 887,-30 c -5,-2 -11,-3 -17,-3 -24,-2 -54,7 -68,19 l 3,-97 h -57 v 301 h 53 v -17 c 25,14 43,21 66,21 66,-5 93,-64 93,-116 -1,-52 -23,-97 -73,-108 z m -32,179 c -35,0 -50,-41 -50,-73 0,-32 11,-65 48,-65 37,0 48,41 48,70 0,32 -11,68 -46,68 z M 655,64 c 0,31 -2,50 -5,58 -8,18 -24,28 -42,29 -18,-1 -26,-10 -33,-23 -2,-7 -3,-26 -3,-56 V -28 h -58 v 138 c -1,49 25,84 73,84 26,0 54,-9 72,-28 v 23 h 53 V -28 H 655 Z M 414,-33 c -28,-1 -59,6 -74,20 v -98 h -57 v 300 h 57 V 80 c 0,-18 2,-32 5,-41 9,-18 24,-28 43,-28 16,0 25,8 32,20 2,6 3,21 3,44 v 115 h 58 V 62 c 0,-20 -1,-34 -3,-43 -12,-34 -36,-51 -64,-52"
       id="path2" />
  </g>
  <path
     d="M 10.15,49.087215 V 19.499999 h 5.973954 v 11.645173 h 11.70572 V 19.499999 h 5.973954 V 49.087215 H 27.829674 V 36.150376 h -11.70572 v 12.936839 z m 42.20114,-6.821609 5.651037,0.948567 q -1.089843,3.108071 -3.451169,4.742835 -2.341144,1.614582 -5.873043,1.614582 -5.59049,0 -8.274733,-3.652992 -2.119139,-2.92643 -2.119139,-7.386713 0,-5.328121 2.785154,-8.33528 2.785154,-3.027341 7.043615,-3.027341 4.783199,0 7.548171,3.168617 2.764972,3.148435 2.643878,9.66731 H 44.096589 q 0.06055,2.522785 1.372394,3.935544 1.311848,1.392577 3.269529,1.392577 1.33203,0 2.240233,-0.726562 0.908202,-0.726562 1.372395,-2.341144 z m 0.322916,-5.731766 q -0.06055,-2.462238 -1.271483,-3.733721 -1.210937,-1.291666 -2.946613,-1.291666 -1.856769,0 -3.067706,1.352212 -1.210936,1.352213 -1.190754,3.673175 z m 14.490872,-2.341144 -5.146481,-0.928385 q 0.867838,-3.108071 2.986977,-4.601559 2.119139,-1.493488 6.29687,-1.493488 3.794268,0 5.651038,0.908202 1.856769,0.88802 2.603513,2.280597 0.766927,1.372395 0.766927,5.065751 l -0.06055,6.619787 q 0,2.825519 0.262369,4.177731 0.282552,1.33203 1.029297,2.865883 h -5.610673 q -0.222005,-0.565103 -0.544922,-1.675128 -0.141276,-0.504557 -0.201822,-0.666016 -1.453124,1.41276 -3.108071,2.119139 -1.654947,0.70638 -3.531898,0.70638 -3.309894,0 -5.22721,-1.796223 -1.897134,-1.796222 -1.897134,-4.541012 0,-1.816405 0.867838,-3.229164 0.867838,-1.432941 2.421873,-2.179686 1.574218,-0.766926 4.52083,-1.33203 3.975909,-0.746744 5.509761,-1.392577 v -0.565104 q 0,-1.634764 -0.807291,-2.320961 -0.807291,-0.70638 -3.047523,-0.70638 -1.513671,0 -2.361327,0.605468 -0.847655,0.585286 -1.372394,2.078775 z m 7.588535,4.601559 q -1.089842,0.363281 -3.451169,0.867837 -2.361326,0.504557 -3.087888,0.988932 -1.110025,0.787109 -1.110025,1.998045 0,1.190755 0.88802,2.058593 0.88802,0.867837 2.260415,0.867837 1.533853,0 2.92643,-1.009113 1.029296,-0.766927 1.352212,-1.876952 0.222005,-0.726562 0.222005,-2.764972 z m 11.160804,10.29296 V 19.499999 h 5.67122 V 49.087215 Z M 107.22675,27.653638 v 4.52083 h -3.875 v 8.638014 q 0,2.623696 0.10091,3.067706 0.12109,0.423828 0.50456,0.70638 0.40364,0.282552 0.96875,0.282552 0.78711,0 2.28059,-0.544922 l 0.48438,4.399736 q -1.97786,0.847656 -4.48047,0.847656 -1.53385,0 -2.76497,-0.504557 -1.231117,-0.524739 -1.816403,-1.33203 -0.565103,-0.827473 -0.787109,-2.22005 -0.18164,-0.988932 -0.18164,-3.996091 v -9.344394 h -2.603514 v -4.52083 h 2.603514 v -4.25846 l 5.691402,-3.309893 v 7.568353 z m 9.58658,-8.153639 v 10.878246 q 2.74479,-3.208981 6.55924,-3.208981 1.95768,0 3.5319,0.726561 1.57421,0.726562 2.36132,1.85677 0.80729,1.130207 1.08985,2.502602 0.30273,1.372395 0.30273,4.25846 v 12.573558 h -5.67122 V 37.764959 q 0,-3.370441 -0.32292,-4.278643 -0.32291,-0.908202 -1.15039,-1.432942 -0.80729,-0.544921 -2.03841,-0.544921 -1.41276,0 -2.52278,0.686197 -1.11003,0.686198 -1.63476,2.078775 -0.50456,1.372395 -0.50456,4.07682 v 10.73697 h -5.67122 V 19.499999 Z"
     id="text3"
     style="font-weight:bold;font-size:41.3333px;font-family:Arial;-inkscape-font-specification:'Arial Bold';letter-spacing:0px;fill:#ffffff"
     aria-label="Health" />
</svg>
